<svg width="30" height="30" viewBox="0 0 30 30" fill="none" xmlns="http://www.w3.org/2000/svg">
<g clip-path="url(#clip0)">
<path d="M25.8452 0H4.15459C3.83087 0 3.56836 0.262456 3.56836 0.586232V3.40014C3.56836 3.72392 3.83087 3.98638 4.15459 3.98638H5.03394V29.4138C5.03394 29.7375 5.29645 30 5.62017 30H24.3796C24.7033 30 24.9658 29.7375 24.9658 29.4138V3.98638H25.8452C26.1689 3.98638 26.4314 3.72392 26.4314 3.40014V0.586232C26.4314 0.262456 26.1689 0 25.8452 0ZM11.5997 28.8275V22.7307H14.4136V28.8275H11.5997ZM15.5861 28.8275V22.7307H18.4V28.8275H15.5861ZM25.2589 2.81391H17.6379C17.3142 2.81391 17.0517 3.07637 17.0517 3.40014C17.0517 3.72392 17.3142 3.98638 17.6379 3.98638H23.7934V28.8275H19.5725V22.1445C19.5725 21.8207 19.31 21.5583 18.9863 21.5583H11.0135C10.6898 21.5583 10.4273 21.8207 10.4273 22.1445V28.8275H6.2064V3.98638H12.3619C12.6856 3.98638 12.9481 3.72392 12.9481 3.40014C12.9481 3.07637 12.6856 2.81391 12.3619 2.81391H4.74082V1.17246H25.2589V2.81391Z" fill="#423E3E"/>
<path d="M11.0134 5.37842H8.19951C7.8758 5.37842 7.61328 5.64087 7.61328 5.96465V8.77856C7.61328 9.10234 7.8758 9.36479 8.19951 9.36479H11.0134C11.3371 9.36479 11.5997 9.10234 11.5997 8.77856V5.96465C11.5997 5.64087 11.3372 5.37842 11.0134 5.37842ZM10.4272 8.19233H8.78574V6.55088H10.4272V8.19233Z" fill="#423E3E"/>
<path d="M13.5929 9.36479H16.4069C16.7306 9.36479 16.9931 9.10234 16.9931 8.77856V5.96465C16.9931 5.64087 16.7306 5.37842 16.4069 5.37842H13.5929C13.2692 5.37842 13.0067 5.64087 13.0067 5.96465V8.77856C13.0067 9.10234 13.2692 9.36479 13.5929 9.36479ZM14.1792 6.55088H15.8206V8.19233H14.1792V6.55088Z" fill="#423E3E"/>
<path d="M18.9864 9.36479H21.8003C22.124 9.36479 22.3865 9.10234 22.3865 8.77856V5.96465C22.3865 5.64087 22.124 5.37842 21.8003 5.37842H18.9864C18.6627 5.37842 18.4001 5.64087 18.4001 5.96465V8.77856C18.4001 9.10234 18.6627 9.36479 18.9864 9.36479ZM19.5726 6.55088H21.2141V8.19233H19.5726V6.55088Z" fill="#423E3E"/>
<path d="M11.0134 10.7715H8.19951C7.8758 10.7715 7.61328 11.0339 7.61328 11.3577V14.1716C7.61328 14.4954 7.8758 14.7579 8.19951 14.7579H11.0134C11.3371 14.7579 11.5997 14.4954 11.5997 14.1716V11.3577C11.5997 11.0339 11.3372 10.7715 11.0134 10.7715ZM10.4272 13.5854H8.78574V11.9439H10.4272V13.5854Z" fill="#423E3E"/>
<path d="M13.5929 14.7579H16.4069C16.7306 14.7579 16.9931 14.4954 16.9931 14.1716V11.3577C16.9931 11.0339 16.7306 10.7715 16.4069 10.7715H13.5929C13.2692 10.7715 13.0067 11.0339 13.0067 11.3577V14.1716C13.0067 14.4954 13.2692 14.7579 13.5929 14.7579ZM14.1792 11.9439H15.8206V13.5854H14.1792V11.9439Z" fill="#423E3E"/>
<path d="M18.9864 14.7579H21.8003C22.124 14.7579 22.3865 14.4954 22.3865 14.1716V11.3577C22.3865 11.0339 22.124 10.7715 21.8003 10.7715H18.9864C18.6627 10.7715 18.4001 11.0339 18.4001 11.3577V14.1716C18.4001 14.4954 18.6627 14.7579 18.9864 14.7579ZM19.5726 11.9439H21.2141V13.5854H19.5726V11.9439Z" fill="#423E3E"/>
<path d="M11.0134 16.165H8.19951C7.8758 16.165 7.61328 16.4275 7.61328 16.7513V19.5652C7.61328 19.889 7.8758 20.1514 8.19951 20.1514H11.0134C11.3371 20.1514 11.5997 19.889 11.5997 19.5652V16.7513C11.5997 16.4275 11.3372 16.165 11.0134 16.165ZM10.4272 18.979H8.78574V17.3375H10.4272V18.979Z" fill="#423E3E"/>
<path d="M13.5929 20.1514H16.4069C16.7306 20.1514 16.9931 19.889 16.9931 19.5652V16.7513C16.9931 16.4275 16.7306 16.165 16.4069 16.165H13.5929C13.2692 16.165 13.0067 16.4275 13.0067 16.7513V19.5652C13.0067 19.889 13.2692 20.1514 13.5929 20.1514ZM14.1792 17.3375H15.8206V18.979H14.1792V17.3375Z" fill="#423E3E"/>
<path d="M18.9864 20.1514H21.8003C22.124 20.1514 22.3865 19.889 22.3865 19.5652V16.7513C22.3865 16.4275 22.124 16.165 21.8003 16.165H18.9864C18.6627 16.165 18.4001 16.4275 18.4001 16.7513V19.5652C18.4001 19.889 18.6627 20.1514 18.9864 20.1514ZM19.5726 17.3375H21.2141V18.979H19.5726V17.3375Z" fill="#423E3E"/>
<path d="M14.9999 3.98643C15.154 3.98643 15.3053 3.9237 15.4143 3.81466C15.5233 3.70563 15.5861 3.55438 15.5861 3.4002C15.5861 3.24602 15.5234 3.09477 15.4143 2.98573C15.3053 2.87669 15.154 2.81396 14.9999 2.81396C14.8457 2.81396 14.6944 2.87669 14.5854 2.98573C14.4764 3.09477 14.4136 3.24602 14.4136 3.4002C14.4136 3.55438 14.4763 3.70563 14.5854 3.81466C14.6944 3.92376 14.8457 3.98643 14.9999 3.98643Z" fill="#423E3E"/>
</g>
<defs>
<clipPath id="clip0">
<rect width="30" height="30" fill="white"/>
</clipPath>
</defs>
</svg>
